<svg xmlns="http://www.w3.org/2000/svg" xmlns:xlink="http://www.w3.org/1999/xlink" width="189" zoomAndPan="magnify" viewBox="0 0 141.75 141.750002" height="189" preserveAspectRatio="xMidYMid meet" version="1.0"><defs><clipPath id="8f46f3029b"><path d="M 4 6.367188 L 113 6.367188 L 113 101 L 4 101 Z M 4 6.367188 " clip-rule="nonzero"/></clipPath><clipPath id="a40e5ac35c"><path d="M 42 105 L 59 105 L 59 121.457031 L 42 121.457031 Z M 42 105 " clip-rule="nonzero"/></clipPath><clipPath id="3e06a795bd"><path d="M 79 105 L 96 105 L 96 121.457031 L 79 121.457031 Z M 79 105 " clip-rule="nonzero"/></clipPath><clipPath id="7c1c26868c"><rect x="0" width="117" y="0" height="122"/></clipPath></defs><g transform="matrix(1, 0, 0, 1, 12, 6)"><g clip-path="url(#7c1c26868c)"><g clip-path="url(#8f46f3029b)"><path fill="#34090d" d="M 97.835938 89.988281 L 43.730469 89.988281 C 43.421875 90 43.113281 89.980469 42.808594 89.929688 C 42.503906 89.878906 42.207031 89.796875 41.917969 89.683594 C 41.628906 89.574219 41.355469 89.433594 41.09375 89.269531 C 40.832031 89.101562 40.589844 88.910156 40.367188 88.695312 C 40.144531 88.480469 39.945312 88.246094 39.769531 87.988281 C 39.597656 87.734375 39.449219 87.464844 39.328125 87.179688 C 39.207031 86.894531 39.113281 86.601562 39.054688 86.296875 C 38.992188 85.992188 38.960938 85.6875 38.960938 85.378906 C 38.960938 85.066406 38.992188 84.761719 39.054688 84.457031 C 39.113281 84.15625 39.207031 83.859375 39.328125 83.574219 C 39.449219 83.289062 39.597656 83.019531 39.769531 82.765625 C 39.945312 82.511719 40.144531 82.273438 40.367188 82.058594 C 40.589844 81.84375 40.832031 81.652344 41.09375 81.488281 C 41.355469 81.320312 41.628906 81.183594 41.917969 81.070312 C 42.207031 80.960938 42.503906 80.878906 42.808594 80.828125 C 43.113281 80.777344 43.421875 80.753906 43.730469 80.765625 L 97.835938 80.765625 C 98.429688 80.765625 99.007812 80.667969 99.570312 80.472656 C 100.132812 80.273438 100.644531 79.988281 101.109375 79.617188 C 101.574219 79.246094 101.960938 78.808594 102.277344 78.300781 C 102.589844 77.796875 102.8125 77.253906 102.941406 76.671875 L 112.785156 32.398438 C 112.867188 32.015625 112.910156 31.628906 112.90625 31.238281 C 112.90625 30.847656 112.859375 30.460938 112.769531 30.082031 C 112.679688 29.699219 112.550781 29.332031 112.378906 28.980469 C 112.207031 28.628906 112 28.300781 111.753906 27.996094 C 111.511719 27.691406 111.234375 27.417969 110.929688 27.175781 C 110.621094 26.929688 110.292969 26.726562 109.9375 26.554688 C 109.585938 26.386719 109.21875 26.257812 108.835938 26.171875 C 108.457031 26.085938 108.070312 26.042969 107.679688 26.042969 L 33.890625 26.042969 C 33.515625 26.042969 33.144531 26.082031 32.777344 26.160156 L 29.148438 10.417969 C 29.015625 9.839844 28.792969 9.300781 28.476562 8.800781 C 28.160156 8.300781 27.773438 7.867188 27.308594 7.5 C 26.847656 7.132812 26.335938 6.851562 25.777344 6.65625 C 25.21875 6.460938 24.644531 6.367188 24.054688 6.367188 L 9.292969 6.367188 C 8.949219 6.367188 8.609375 6.398438 8.273438 6.464844 C 7.9375 6.535156 7.609375 6.632812 7.292969 6.765625 C 6.976562 6.894531 6.675781 7.054688 6.390625 7.246094 C 6.105469 7.4375 5.839844 7.652344 5.597656 7.898438 C 5.355469 8.140625 5.140625 8.402344 4.949219 8.6875 C 4.757812 8.972656 4.597656 9.273438 4.464844 9.59375 C 4.332031 9.910156 4.234375 10.234375 4.167969 10.574219 C 4.101562 10.910156 4.066406 11.25 4.066406 11.59375 C 4.066406 11.9375 4.101562 12.277344 4.167969 12.613281 C 4.234375 12.949219 4.332031 13.277344 4.464844 13.59375 C 4.597656 13.910156 4.757812 14.210938 4.949219 14.496094 C 5.140625 14.78125 5.355469 15.046875 5.597656 15.289062 C 5.839844 15.53125 6.105469 15.746094 6.390625 15.9375 C 6.675781 16.128906 6.976562 16.289062 7.292969 16.421875 C 7.609375 16.550781 7.9375 16.652344 8.273438 16.71875 C 8.609375 16.785156 8.949219 16.820312 9.292969 16.820312 L 19.894531 16.820312 L 33.230469 74.609375 C 32.695312 75.128906 32.203125 75.683594 31.75 76.273438 C 31.300781 76.867188 30.894531 77.488281 30.535156 78.140625 C 30.175781 78.792969 29.867188 79.46875 29.605469 80.167969 C 29.347656 80.867188 29.140625 81.578125 28.988281 82.308594 C 28.835938 83.039062 28.738281 83.773438 28.691406 84.515625 C 28.648438 85.261719 28.660156 86.003906 28.726562 86.746094 C 28.792969 87.488281 28.914062 88.21875 29.089844 88.945312 C 29.265625 89.667969 29.492188 90.375 29.773438 91.066406 C 30.054688 91.753906 30.382812 92.421875 30.761719 93.0625 C 31.144531 93.703125 31.566406 94.3125 32.035156 94.890625 C 32.507812 95.46875 33.015625 96.007812 33.566406 96.511719 C 34.117188 97.011719 34.703125 97.472656 35.320312 97.886719 C 35.9375 98.300781 36.582031 98.667969 37.257812 98.988281 C 37.929688 99.308594 38.621094 99.578125 39.335938 99.792969 C 40.046875 100.011719 40.773438 100.171875 41.507812 100.28125 C 42.246094 100.390625 42.988281 100.445312 43.730469 100.441406 L 97.835938 100.441406 C 98.179688 100.441406 98.519531 100.410156 98.855469 100.34375 C 99.191406 100.277344 99.519531 100.175781 99.835938 100.046875 C 100.152344 99.914062 100.453125 99.753906 100.738281 99.5625 C 101.023438 99.371094 101.289062 99.15625 101.53125 98.914062 C 101.773438 98.667969 101.992188 98.40625 102.183594 98.121094 C 102.371094 97.835938 102.535156 97.535156 102.664062 97.21875 C 102.796875 96.898438 102.894531 96.574219 102.960938 96.238281 C 103.027344 95.898438 103.0625 95.558594 103.0625 95.214844 C 103.0625 94.875 103.027344 94.535156 102.960938 94.195312 C 102.894531 93.859375 102.796875 93.535156 102.664062 93.214844 C 102.535156 92.898438 102.371094 92.597656 102.183594 92.3125 C 101.992188 92.027344 101.773438 91.765625 101.53125 91.519531 C 101.289062 91.277344 101.023438 91.0625 100.738281 90.871094 C 100.453125 90.679688 100.152344 90.519531 99.835938 90.386719 C 99.519531 90.257812 99.191406 90.15625 98.855469 90.089844 C 98.519531 90.023438 98.179688 89.988281 97.835938 89.988281 Z M 97.835938 89.988281 " fill-opacity="1" fill-rule="nonzero"/></g><g clip-path="url(#a40e5ac35c)"><path fill="#34090d" d="M 58.484375 113.507812 C 58.484375 114.023438 58.433594 114.535156 58.335938 115.039062 C 58.234375 115.542969 58.085938 116.035156 57.890625 116.507812 C 57.691406 116.984375 57.449219 117.4375 57.164062 117.863281 C 56.878906 118.292969 56.554688 118.6875 56.191406 119.054688 C 55.824219 119.417969 55.429688 119.742188 55 120.027344 C 54.574219 120.3125 54.121094 120.554688 53.644531 120.753906 C 53.171875 120.949219 52.679688 121.097656 52.175781 121.199219 C 51.671875 121.300781 51.160156 121.347656 50.644531 121.347656 C 50.132812 121.347656 49.621094 121.300781 49.117188 121.199219 C 48.613281 121.097656 48.121094 120.949219 47.644531 120.753906 C 47.171875 120.554688 46.71875 120.3125 46.289062 120.027344 C 45.863281 119.742188 45.464844 119.417969 45.101562 119.054688 C 44.738281 118.6875 44.414062 118.292969 44.128906 117.863281 C 43.839844 117.4375 43.601562 116.984375 43.402344 116.507812 C 43.207031 116.035156 43.058594 115.542969 42.957031 115.039062 C 42.855469 114.535156 42.804688 114.023438 42.804688 113.507812 C 42.804688 112.996094 42.855469 112.484375 42.957031 111.980469 C 43.058594 111.476562 43.207031 110.984375 43.402344 110.507812 C 43.601562 110.035156 43.839844 109.582031 44.128906 109.152344 C 44.414062 108.726562 44.738281 108.328125 45.101562 107.964844 C 45.464844 107.601562 45.863281 107.277344 46.289062 106.992188 C 46.71875 106.703125 47.171875 106.464844 47.644531 106.265625 C 48.121094 106.070312 48.613281 105.921875 49.117188 105.820312 C 49.621094 105.71875 50.132812 105.667969 50.644531 105.667969 C 51.160156 105.667969 51.671875 105.71875 52.175781 105.820312 C 52.679688 105.921875 53.171875 106.070312 53.644531 106.265625 C 54.121094 106.464844 54.574219 106.703125 55 106.992188 C 55.429688 107.277344 55.824219 107.601562 56.191406 107.964844 C 56.554688 108.328125 56.878906 108.726562 57.164062 109.152344 C 57.449219 109.582031 57.691406 110.035156 57.890625 110.507812 C 58.085938 110.984375 58.234375 111.476562 58.335938 111.980469 C 58.433594 112.484375 58.484375 112.996094 58.484375 113.507812 Z M 58.484375 113.507812 " fill-opacity="1" fill-rule="nonzero"/></g><g clip-path="url(#3e06a795bd)"><path fill="#34090d" d="M 95.070312 113.507812 C 95.070312 114.023438 95.019531 114.535156 94.921875 115.039062 C 94.820312 115.542969 94.671875 116.035156 94.472656 116.507812 C 94.277344 116.984375 94.035156 117.4375 93.75 117.863281 C 93.464844 118.292969 93.140625 118.6875 92.773438 119.054688 C 92.410156 119.417969 92.015625 119.742188 91.585938 120.027344 C 91.160156 120.3125 90.707031 120.554688 90.230469 120.753906 C 89.757812 120.949219 89.265625 121.097656 88.761719 121.199219 C 88.257812 121.300781 87.746094 121.347656 87.230469 121.347656 C 86.71875 121.347656 86.207031 121.300781 85.703125 121.199219 C 85.195312 121.097656 84.707031 120.949219 84.230469 120.753906 C 83.753906 120.554688 83.304688 120.3125 82.875 120.027344 C 82.449219 119.742188 82.050781 119.417969 81.6875 119.054688 C 81.324219 118.6875 81 118.292969 80.714844 117.863281 C 80.425781 117.4375 80.1875 116.984375 79.988281 116.507812 C 79.792969 116.035156 79.644531 115.542969 79.542969 115.039062 C 79.441406 114.535156 79.390625 114.023438 79.390625 113.507812 C 79.390625 112.996094 79.441406 112.484375 79.542969 111.980469 C 79.644531 111.476562 79.792969 110.984375 79.988281 110.507812 C 80.1875 110.035156 80.425781 109.582031 80.714844 109.152344 C 81 108.726562 81.324219 108.328125 81.6875 107.964844 C 82.050781 107.601562 82.449219 107.277344 82.875 106.992188 C 83.304688 106.703125 83.753906 106.464844 84.230469 106.265625 C 84.707031 106.070312 85.195312 105.921875 85.703125 105.820312 C 86.207031 105.71875 86.71875 105.667969 87.230469 105.667969 C 87.746094 105.667969 88.257812 105.71875 88.761719 105.820312 C 89.265625 105.921875 89.757812 106.070312 90.230469 106.265625 C 90.707031 106.464844 91.160156 106.703125 91.585938 106.992188 C 92.015625 107.277344 92.410156 107.601562 92.773438 107.964844 C 93.140625 108.328125 93.464844 108.726562 93.75 109.152344 C 94.035156 109.582031 94.277344 110.035156 94.472656 110.507812 C 94.671875 110.984375 94.820312 111.476562 94.921875 111.980469 C 95.019531 112.484375 95.070312 112.996094 95.070312 113.507812 Z M 95.070312 113.507812 " fill-opacity="1" fill-rule="nonzero"/></g></g></g></svg>