<svg xmlns="http://www.w3.org/2000/svg" xmlns:xlink="http://www.w3.org/1999/xlink" width="189" zoomAndPan="magnify" viewBox="0 0 141.75 141.750002" height="189" preserveAspectRatio="xMidYMid meet" version="1.0"><defs><g/><clipPath id="85104f2c49"><path d="M 53 1 L 64.316406 1 L 64.316406 11.378906 L 53 11.378906 Z M 53 1 " clip-rule="nonzero"/></clipPath><clipPath id="66145e76e2"><path d="M 63 0.894531 L 64.316406 0.894531 L 64.316406 3 L 63 3 Z M 63 0.894531 " clip-rule="nonzero"/></clipPath><clipPath id="6cb460363d"><path d="M 50.835938 5 L 54 5 L 54 9 L 50.835938 9 Z M 50.835938 5 " clip-rule="nonzero"/></clipPath><clipPath id="d1d6d08832"><path d="M 53 1 L 64.316406 1 L 64.316406 11.378906 L 53 11.378906 Z M 53 1 " clip-rule="nonzero"/></clipPath><clipPath id="c2228b1bb5"><path d="M 63 0.894531 L 64.316406 0.894531 L 64.316406 3 L 63 3 Z M 63 0.894531 " clip-rule="nonzero"/></clipPath><clipPath id="9c783ac43d"><path d="M 50.835938 5 L 54 5 L 54 9 L 50.835938 9 Z M 50.835938 5 " clip-rule="nonzero"/></clipPath><clipPath id="89d6d79b35"><rect x="0" width="117" y="0" height="51"/></clipPath></defs><g transform="matrix(1, 0, 0, 1, 13, 39)"><g clip-path="url(#89d6d79b35)"><g clip-path="url(#85104f2c49)"><path fill="#34090d" d="M 54.394531 1.675781 L 53.125 3.300781 L 54.5625 1.890625 L 57.988281 1.976562 L 56.78125 3.328125 L 58.257812 1.980469 L 58.558594 1.988281 L 60.089844 3.746094 L 56.351562 3.855469 L 54.78125 2.167969 L 56.105469 3.863281 L 53.324219 3.945312 L 56.222656 4.117188 L 58.421875 11.484375 L 56.5 4.132812 L 60.449219 4.367188 L 58.421875 11.484375 L 61.011719 4.398438 L 62.933594 4.515625 L 58.421875 11.484375 L 64.226562 3.945312 L 62.449219 1.675781 Z M 58.824219 1.996094 L 61.855469 2.070312 L 60.824219 3.726562 L 60.703125 3.730469 Z M 63.125 3.660156 L 60.882812 3.722656 L 62.3125 2.363281 L 63.054688 3.550781 Z M 63.125 3.660156 " fill-opacity="1" fill-rule="evenodd"/></g><path fill="#34090d" d="M 52.519531 4.261719 L 52.597656 5.097656 L 52.675781 4.261719 L 53.511719 4.183594 L 52.675781 4.105469 L 52.597656 3.269531 L 52.519531 4.105469 L 51.683594 4.183594 Z M 52.519531 4.261719 " fill-opacity="1" fill-rule="evenodd"/><g clip-path="url(#66145e76e2)"><path fill="#34090d" d="M 63.769531 1.773438 L 63.835938 2.515625 L 63.90625 1.773438 L 64.648438 1.707031 L 63.90625 1.636719 L 63.835938 0.894531 L 63.769531 1.636719 L 63.027344 1.707031 Z M 63.769531 1.773438 " fill-opacity="1" fill-rule="evenodd"/></g><g clip-path="url(#6cb460363d)"><path fill="#34090d" d="M 52.28125 6.96875 L 53.496094 6.855469 L 52.28125 6.746094 L 52.167969 5.53125 L 52.054688 6.746094 L 50.84375 6.855469 L 52.054688 6.96875 L 52.167969 8.183594 Z M 52.28125 6.96875 " fill-opacity="1" fill-rule="evenodd"/></g><path fill="#34090d" d="M 55.109375 8.761719 L 54.949219 7.054688 L 54.792969 8.761719 L 53.085938 8.917969 L 54.792969 9.078125 L 54.949219 10.78125 L 55.109375 9.078125 L 56.816406 8.917969 Z M 55.109375 8.761719 " fill-opacity="1" fill-rule="evenodd"/><g fill="#34090d" fill-opacity="1"><g transform="translate(0.436311, 42.981827)"><g><path d="M 0.90625 -5.234375 C 0.90625 -6.472656 1.191406 -7.585938 1.765625 -8.578125 C 2.347656 -9.566406 3.09375 -10.460938 4 -11.265625 C 4.90625 -12.078125 5.867188 -12.816406 6.890625 -13.484375 C 7.910156 -14.160156 8.875 -14.78125 9.78125 -15.34375 C 10.6875 -15.914062 11.425781 -16.460938 12 -16.984375 C 12.582031 -17.503906 12.875 -18.023438 12.875 -18.546875 C 12.875 -18.816406 12.800781 -19.015625 12.65625 -19.140625 C 12.519531 -19.273438 12.351562 -19.34375 12.15625 -19.34375 C 11.800781 -19.34375 11.46875 -19.179688 11.15625 -18.859375 C 10.84375 -18.546875 10.535156 -18.179688 10.234375 -17.765625 C 9.941406 -17.359375 9.617188 -16.992188 9.265625 -16.671875 C 8.921875 -16.359375 8.539062 -16.203125 8.125 -16.203125 C 7.695312 -16.203125 7.4375 -16.367188 7.34375 -16.703125 C 7.257812 -17.046875 7.285156 -17.410156 7.421875 -17.796875 C 7.890625 -18.992188 8.3125 -20.101562 8.6875 -21.125 C 9.0625 -22.15625 9.429688 -23.15625 9.796875 -24.125 C 10.171875 -25.09375 10.550781 -26.09375 10.9375 -27.125 C 11.332031 -28.164062 11.769531 -29.304688 12.25 -30.546875 L 12.546875 -30.546875 L 22.140625 -5.234375 C 22.796875 -3.597656 23.410156 -2.363281 23.984375 -1.53125 C 24.566406 -0.707031 25.316406 -0.296875 26.234375 -0.296875 L 26.234375 0 L 16.421875 0 L 16.421875 -0.296875 C 17.472656 -0.296875 18.273438 -0.4375 18.828125 -0.71875 C 19.378906 -1 19.734375 -1.390625 19.890625 -1.890625 C 20.046875 -2.390625 20.0625 -2.96875 19.9375 -3.625 C 19.820312 -4.28125 19.625 -4.988281 19.34375 -5.75 L 15.640625 -15.546875 C 15.753906 -14.585938 15.8125 -13.390625 15.8125 -11.953125 C 15.8125 -9.535156 15.4375 -7.378906 14.6875 -5.484375 C 13.9375 -3.585938 12.859375 -2.097656 11.453125 -1.015625 C 10.046875 0.0546875 8.34375 0.59375 6.34375 0.59375 C 5.1875 0.59375 4.203125 0.324219 3.390625 -0.203125 C 2.585938 -0.742188 1.972656 -1.457031 1.546875 -2.34375 C 1.117188 -3.238281 0.90625 -4.203125 0.90625 -5.234375 Z M 3.4375 -5.8125 C 3.4375 -4.414062 3.851562 -3.238281 4.6875 -2.28125 C 5.53125 -1.320312 6.679688 -0.84375 8.140625 -0.84375 C 9.398438 -0.84375 10.488281 -1.179688 11.40625 -1.859375 C 12.332031 -2.535156 13.097656 -3.421875 13.703125 -4.515625 C 14.304688 -5.617188 14.757812 -6.816406 15.0625 -8.109375 C 15.363281 -9.410156 15.515625 -10.671875 15.515625 -11.890625 C 15.515625 -13.003906 15.476562 -14 15.40625 -14.875 C 15.34375 -15.757812 15.171875 -16.640625 14.890625 -17.515625 L 11.265625 -27.078125 L 7.8125 -17.90625 C 7.613281 -17.394531 7.554688 -17.03125 7.640625 -16.8125 C 7.734375 -16.601562 7.898438 -16.5 8.140625 -16.5 C 8.484375 -16.5 8.8125 -16.660156 9.125 -16.984375 C 9.445312 -17.304688 9.769531 -17.671875 10.09375 -18.078125 C 10.414062 -18.484375 10.75 -18.847656 11.09375 -19.171875 C 11.445312 -19.492188 11.820312 -19.65625 12.21875 -19.65625 C 12.5 -19.65625 12.734375 -19.554688 12.921875 -19.359375 C 13.109375 -19.171875 13.203125 -18.878906 13.203125 -18.484375 C 13.203125 -17.828125 12.96875 -17.222656 12.5 -16.671875 C 12.03125 -16.117188 11.425781 -15.582031 10.6875 -15.0625 C 9.945312 -14.539062 9.15625 -13.988281 8.3125 -13.40625 C 7.476562 -12.832031 6.691406 -12.191406 5.953125 -11.484375 C 5.222656 -10.773438 4.617188 -9.960938 4.140625 -9.046875 C 3.671875 -8.128906 3.4375 -7.050781 3.4375 -5.8125 Z M 3.4375 -5.8125 "/></g></g></g><g fill="#34090d" fill-opacity="1"><g transform="translate(26.673295, 42.981827)"><g><path d="M 0.90625 0 L 0.90625 -0.296875 C 1.757812 -0.296875 2.378906 -0.554688 2.765625 -1.078125 C 3.160156 -1.597656 3.40625 -2.445312 3.5 -3.625 C 3.601562 -4.800781 3.65625 -6.367188 3.65625 -8.328125 L 3.65625 -21.625 C 3.65625 -23.601562 3.601562 -25.175781 3.5 -26.34375 C 3.40625 -27.507812 3.160156 -28.351562 2.765625 -28.875 C 2.378906 -29.394531 1.757812 -29.65625 0.90625 -29.65625 L 0.90625 -29.953125 L 3.296875 -29.953125 C 4.867188 -29.953125 6.320312 -30.050781 7.65625 -30.25 C 9 -30.445312 10.332031 -30.546875 11.65625 -30.546875 C 13.96875 -30.546875 15.972656 -30.125 17.671875 -29.28125 C 19.367188 -28.445312 20.78125 -27.300781 21.90625 -25.84375 C 23.039062 -24.382812 23.878906 -22.722656 24.421875 -20.859375 C 24.972656 -18.992188 25.25 -17.035156 25.25 -14.984375 C 25.25 -12.921875 24.972656 -10.957031 24.421875 -9.09375 C 23.878906 -7.226562 23.039062 -5.566406 21.90625 -4.109375 C 20.78125 -2.648438 19.367188 -1.5 17.671875 -0.65625 C 15.972656 0.175781 13.96875 0.59375 11.65625 0.59375 C 10.332031 0.59375 9 0.492188 7.65625 0.296875 C 6.320312 0.0976562 4.867188 0 3.296875 0 Z M 6.203125 -29.296875 L 6.203125 -0.65625 C 7.078125 -0.394531 7.953125 -0.1875 8.828125 -0.03125 C 9.710938 0.113281 10.644531 0.1875 11.625 0.1875 C 13.476562 0.1875 15.09375 -0.210938 16.46875 -1.015625 C 17.851562 -1.816406 19.003906 -2.921875 19.921875 -4.328125 C 20.835938 -5.734375 21.523438 -7.347656 21.984375 -9.171875 C 22.441406 -11.003906 22.671875 -12.941406 22.671875 -14.984375 C 22.671875 -17.015625 22.441406 -18.941406 21.984375 -20.765625 C 21.523438 -22.597656 20.835938 -24.21875 19.921875 -25.625 C 19.003906 -27.03125 17.851562 -28.132812 16.46875 -28.9375 C 15.09375 -29.738281 13.476562 -30.140625 11.625 -30.140625 C 10.644531 -30.140625 9.710938 -30.066406 8.828125 -29.921875 C 7.953125 -29.785156 7.078125 -29.578125 6.203125 -29.296875 Z M 6.203125 -29.296875 "/></g></g></g><g fill="#34090d" fill-opacity="1"><g transform="translate(53.718956, 42.981827)"><g><path d="M 0.90625 -29.65625 L 0.90625 -29.953125 L 8.984375 -29.953125 L 8.984375 -29.65625 C 8.128906 -29.65625 7.503906 -29.394531 7.109375 -28.875 C 6.722656 -28.351562 6.476562 -27.507812 6.375 -26.34375 C 6.28125 -25.175781 6.234375 -23.601562 6.234375 -21.625 L 6.234375 -8.328125 C 6.234375 -6.367188 6.28125 -4.800781 6.375 -3.625 C 6.476562 -2.445312 6.722656 -1.597656 7.109375 -1.078125 C 7.503906 -0.554688 8.128906 -0.296875 8.984375 -0.296875 L 8.984375 0 L 0.90625 0 L 0.90625 -0.296875 C 1.757812 -0.296875 2.378906 -0.554688 2.765625 -1.078125 C 3.160156 -1.597656 3.40625 -2.445312 3.5 -3.625 C 3.601562 -4.800781 3.65625 -6.367188 3.65625 -8.328125 L 3.65625 -21.625 C 3.65625 -23.601562 3.601562 -25.175781 3.5 -26.34375 C 3.40625 -27.507812 3.160156 -28.351562 2.765625 -28.875 C 2.378906 -29.394531 1.757812 -29.65625 0.90625 -29.65625 Z M 0.90625 -29.65625 "/></g></g></g><g fill="#34090d" fill-opacity="1"><g transform="translate(63.602748, 42.981827)"><g><path d="M 0.90625 0 L 0.90625 -0.296875 C 1.757812 -0.296875 2.378906 -0.554688 2.765625 -1.078125 C 3.160156 -1.597656 3.40625 -2.445312 3.5 -3.625 C 3.601562 -4.800781 3.65625 -6.367188 3.65625 -8.328125 L 3.65625 -21.625 C 3.65625 -23.601562 3.601562 -25.175781 3.5 -26.34375 C 3.40625 -27.507812 3.160156 -28.351562 2.765625 -28.875 C 2.378906 -29.394531 1.757812 -29.65625 0.90625 -29.65625 L 0.90625 -29.953125 L 4.5 -29.953125 C 5.59375 -29.953125 6.59375 -30 7.5 -30.09375 C 8.40625 -30.195312 9.320312 -30.296875 10.25 -30.390625 C 11.1875 -30.492188 12.234375 -30.546875 13.390625 -30.546875 C 15.523438 -30.546875 17.332031 -30.179688 18.8125 -29.453125 C 20.289062 -28.722656 21.410156 -27.726562 22.171875 -26.46875 C 22.941406 -25.21875 23.328125 -23.773438 23.328125 -22.140625 C 23.328125 -20.773438 22.972656 -19.492188 22.265625 -18.296875 C 21.554688 -17.097656 20.5625 -16.132812 19.28125 -15.40625 C 18.007812 -14.675781 16.503906 -14.3125 14.765625 -14.3125 C 14.066406 -14.3125 13.414062 -14.40625 12.8125 -14.59375 C 12.21875 -14.789062 11.675781 -15.019531 11.1875 -15.28125 C 10.695312 -15.539062 10.25 -15.765625 9.84375 -15.953125 C 9.445312 -16.140625 9.09375 -16.234375 8.78125 -16.234375 C 8.59375 -16.234375 8.398438 -16.1875 8.203125 -16.09375 C 8.003906 -16.007812 7.90625 -15.796875 7.90625 -15.453125 C 7.90625 -15.078125 8.125 -14.738281 8.5625 -14.4375 C 9 -14.132812 9.566406 -13.832031 10.265625 -13.53125 C 10.972656 -13.238281 11.722656 -12.910156 12.515625 -12.546875 C 13.316406 -12.191406 14.085938 -11.753906 14.828125 -11.234375 C 15.566406 -10.710938 16.175781 -10.070312 16.65625 -9.3125 C 17.25 -8.394531 17.863281 -7.410156 18.5 -6.359375 C 19.144531 -5.316406 19.820312 -4.332031 20.53125 -3.40625 C 21.238281 -2.488281 21.984375 -1.738281 22.765625 -1.15625 C 23.546875 -0.582031 24.363281 -0.296875 25.21875 -0.296875 L 25.21875 0 L 20.640625 0 C 20.296875 0 19.957031 -0.140625 19.625 -0.421875 C 19.300781 -0.703125 18.898438 -1.175781 18.421875 -1.84375 C 17.941406 -2.507812 17.328125 -3.421875 16.578125 -4.578125 C 15.828125 -5.734375 14.863281 -7.203125 13.6875 -8.984375 C 12.96875 -10.085938 12.25 -10.957031 11.53125 -11.59375 C 10.8125 -12.226562 10.15625 -12.738281 9.5625 -13.125 C 8.976562 -13.519531 8.503906 -13.890625 8.140625 -14.234375 C 7.785156 -14.585938 7.609375 -15.015625 7.609375 -15.515625 C 7.609375 -15.878906 7.71875 -16.140625 7.9375 -16.296875 C 8.15625 -16.453125 8.394531 -16.53125 8.65625 -16.53125 C 9.09375 -16.53125 9.519531 -16.445312 9.9375 -16.28125 C 10.363281 -16.113281 10.800781 -15.914062 11.25 -15.6875 C 11.695312 -15.457031 12.1875 -15.253906 12.71875 -15.078125 C 13.257812 -14.910156 13.882812 -14.828125 14.59375 -14.828125 C 15.53125 -14.828125 16.375 -15.035156 17.125 -15.453125 C 17.882812 -15.867188 18.535156 -16.421875 19.078125 -17.109375 C 19.617188 -17.804688 20.03125 -18.585938 20.3125 -19.453125 C 20.601562 -20.316406 20.75 -21.203125 20.75 -22.109375 C 20.75 -23.765625 20.378906 -25.191406 19.640625 -26.390625 C 18.910156 -27.585938 17.863281 -28.507812 16.5 -29.15625 C 15.144531 -29.8125 13.539062 -30.140625 11.6875 -30.140625 C 10.582031 -30.140625 9.617188 -30.0625 8.796875 -29.90625 C 7.984375 -29.757812 7.117188 -29.515625 6.203125 -29.171875 L 6.203125 -8.328125 C 6.203125 -6.367188 6.25 -4.800781 6.34375 -3.625 C 6.445312 -2.445312 6.691406 -1.597656 7.078125 -1.078125 C 7.472656 -0.554688 8.097656 -0.296875 8.953125 -0.296875 L 8.953125 0 Z M 0.90625 0 "/></g></g></g><g fill="#34090d" fill-opacity="1"><g transform="translate(88.821412, 42.981827)"><g><path d="M 0.90625 -5.234375 C 0.90625 -6.472656 1.191406 -7.585938 1.765625 -8.578125 C 2.347656 -9.566406 3.09375 -10.460938 4 -11.265625 C 4.90625 -12.078125 5.867188 -12.816406 6.890625 -13.484375 C 7.910156 -14.160156 8.875 -14.78125 9.78125 -15.34375 C 10.6875 -15.914062 11.425781 -16.460938 12 -16.984375 C 12.582031 -17.503906 12.875 -18.023438 12.875 -18.546875 C 12.875 -18.816406 12.800781 -19.015625 12.65625 -19.140625 C 12.519531 -19.273438 12.351562 -19.34375 12.15625 -19.34375 C 11.800781 -19.34375 11.46875 -19.179688 11.15625 -18.859375 C 10.84375 -18.546875 10.535156 -18.179688 10.234375 -17.765625 C 9.941406 -17.359375 9.617188 -16.992188 9.265625 -16.671875 C 8.921875 -16.359375 8.539062 -16.203125 8.125 -16.203125 C 7.695312 -16.203125 7.4375 -16.367188 7.34375 -16.703125 C 7.257812 -17.046875 7.285156 -17.410156 7.421875 -17.796875 C 7.890625 -18.992188 8.3125 -20.101562 8.6875 -21.125 C 9.0625 -22.15625 9.429688 -23.15625 9.796875 -24.125 C 10.171875 -25.09375 10.550781 -26.09375 10.9375 -27.125 C 11.332031 -28.164062 11.769531 -29.304688 12.25 -30.546875 L 12.546875 -30.546875 L 22.140625 -5.234375 C 22.796875 -3.597656 23.410156 -2.363281 23.984375 -1.53125 C 24.566406 -0.707031 25.316406 -0.296875 26.234375 -0.296875 L 26.234375 0 L 16.421875 0 L 16.421875 -0.296875 C 17.472656 -0.296875 18.273438 -0.4375 18.828125 -0.71875 C 19.378906 -1 19.734375 -1.390625 19.890625 -1.890625 C 20.046875 -2.390625 20.0625 -2.96875 19.9375 -3.625 C 19.820312 -4.28125 19.625 -4.988281 19.34375 -5.75 L 15.640625 -15.546875 C 15.753906 -14.585938 15.8125 -13.390625 15.8125 -11.953125 C 15.8125 -9.535156 15.4375 -7.378906 14.6875 -5.484375 C 13.9375 -3.585938 12.859375 -2.097656 11.453125 -1.015625 C 10.046875 0.0546875 8.34375 0.59375 6.34375 0.59375 C 5.1875 0.59375 4.203125 0.324219 3.390625 -0.203125 C 2.585938 -0.742188 1.972656 -1.457031 1.546875 -2.34375 C 1.117188 -3.238281 0.90625 -4.203125 0.90625 -5.234375 Z M 3.4375 -5.8125 C 3.4375 -4.414062 3.851562 -3.238281 4.6875 -2.28125 C 5.53125 -1.320312 6.679688 -0.84375 8.140625 -0.84375 C 9.398438 -0.84375 10.488281 -1.179688 11.40625 -1.859375 C 12.332031 -2.535156 13.097656 -3.421875 13.703125 -4.515625 C 14.304688 -5.617188 14.757812 -6.816406 15.0625 -8.109375 C 15.363281 -9.410156 15.515625 -10.671875 15.515625 -11.890625 C 15.515625 -13.003906 15.476562 -14 15.40625 -14.875 C 15.34375 -15.757812 15.171875 -16.640625 14.890625 -17.515625 L 11.265625 -27.078125 L 7.8125 -17.90625 C 7.613281 -17.394531 7.554688 -17.03125 7.640625 -16.8125 C 7.734375 -16.601562 7.898438 -16.5 8.140625 -16.5 C 8.484375 -16.5 8.8125 -16.660156 9.125 -16.984375 C 9.445312 -17.304688 9.769531 -17.671875 10.09375 -18.078125 C 10.414062 -18.484375 10.75 -18.847656 11.09375 -19.171875 C 11.445312 -19.492188 11.820312 -19.65625 12.21875 -19.65625 C 12.5 -19.65625 12.734375 -19.554688 12.921875 -19.359375 C 13.109375 -19.171875 13.203125 -18.878906 13.203125 -18.484375 C 13.203125 -17.828125 12.96875 -17.222656 12.5 -16.671875 C 12.03125 -16.117188 11.425781 -15.582031 10.6875 -15.0625 C 9.945312 -14.539062 9.15625 -13.988281 8.3125 -13.40625 C 7.476562 -12.832031 6.691406 -12.191406 5.953125 -11.484375 C 5.222656 -10.773438 4.617188 -9.960938 4.140625 -9.046875 C 3.671875 -8.128906 3.4375 -7.050781 3.4375 -5.8125 Z M 3.4375 -5.8125 "/></g></g></g><g clip-path="url(#d1d6d08832)"><path fill="#34090d" d="M 54.394531 1.675781 L 53.125 3.300781 L 54.5625 1.890625 L 57.988281 1.976562 L 56.78125 3.328125 L 58.257812 1.980469 L 58.558594 1.988281 L 60.089844 3.746094 L 56.351562 3.855469 L 54.78125 2.167969 L 56.105469 3.863281 L 53.324219 3.945312 L 56.222656 4.117188 L 58.421875 11.484375 L 56.5 4.132812 L 60.449219 4.367188 L 58.421875 11.484375 L 61.011719 4.398438 L 62.933594 4.515625 L 58.421875 11.484375 L 64.226562 3.945312 L 62.449219 1.675781 Z M 58.824219 1.996094 L 61.855469 2.070312 L 60.824219 3.726562 L 60.703125 3.730469 Z M 63.125 3.660156 L 60.882812 3.722656 L 62.3125 2.363281 L 63.054688 3.550781 Z M 63.125 3.660156 " fill-opacity="1" fill-rule="evenodd"/></g><path fill="#34090d" d="M 52.519531 4.261719 L 52.597656 5.097656 L 52.675781 4.261719 L 53.511719 4.183594 L 52.675781 4.105469 L 52.597656 3.269531 L 52.519531 4.105469 L 51.683594 4.183594 Z M 52.519531 4.261719 " fill-opacity="1" fill-rule="evenodd"/><g clip-path="url(#c2228b1bb5)"><path fill="#34090d" d="M 63.769531 1.773438 L 63.835938 2.515625 L 63.90625 1.773438 L 64.648438 1.707031 L 63.90625 1.636719 L 63.835938 0.894531 L 63.769531 1.636719 L 63.027344 1.707031 Z M 63.769531 1.773438 " fill-opacity="1" fill-rule="evenodd"/></g><g clip-path="url(#9c783ac43d)"><path fill="#34090d" d="M 52.28125 6.96875 L 53.496094 6.855469 L 52.28125 6.746094 L 52.167969 5.53125 L 52.054688 6.746094 L 50.84375 6.855469 L 52.054688 6.96875 L 52.167969 8.183594 Z M 52.28125 6.96875 " fill-opacity="1" fill-rule="evenodd"/></g><path fill="#34090d" d="M 55.109375 8.761719 L 54.949219 7.054688 L 54.792969 8.761719 L 53.085938 8.917969 L 54.792969 9.078125 L 54.949219 10.78125 L 55.109375 9.078125 L 56.816406 8.917969 Z M 55.109375 8.761719 " fill-opacity="1" fill-rule="evenodd"/></g></g></svg>